<?xml version="1.0" standalone="no"?><!DOCTYPE svg PUBLIC "-//W3C//DTD SVG 1.1//EN" "http://www.w3.org/Graphics/SVG/1.1/DTD/svg11.dtd"><svg t="1569382796112" class="icon" viewBox="0 0 1024 1024" version="1.1" xmlns="http://www.w3.org/2000/svg" p-id="3248" xmlns:xlink="http://www.w3.org/1999/xlink" width="200" height="200"><defs><style type="text/css"></style></defs><path d="M512 0C229.23159 0 0 229.23159 0 512s229.23159 512 512 512 512-229.23159 512-512S794.76841 0 512 0z m214.488615 646.603487c-24.799179-17.591795-37.704205-56.950154-37.704205-56.950154C685.187282 618.167795 684.504615 632.214974 669.538462 656.410256c0 0-21.385846 16.594051 0 26.256411 0 0 74.935795 22.081641 0 52.51282 0 0-63.921231 26.427077-131.282052-13.128205 0 0-16.226462-12.786872-39.384615 0 0 0-70.078359 53.339897-144.410257 0 0 0-41.288205-26.125128 13.128206-39.384615 0 0 21.031385-12.786872 0-26.256411-17.539282-28.199385-18.077538-54.101333-18.077539-54.101333-2.980103-15.149949-6.28841 0-6.28841 0-41.366974 59.654564-43.979487 37.966769-43.979487 37.966769-10.423795-93.210256 56.556308-176.193641 56.556307-176.193641-2.743795-30.116103 6.28841-75.92041 6.288411-75.92041l0.315077-0.013128C365.725538 303.747282 434.530462 236.307692 519.154872 236.307692c86.738051 0 157.065846 70.813538 157.065846 158.168616l-0.013128 0.367589c9.032205 35.104821 6.28841 69.225026 6.28841 69.225026 22.38359 50.399179 50.267897 106.601026 50.267897 106.601026 21.293949 98.514051-6.275282 75.933538-6.275282 75.933538z" fill="#12ACFC" p-id="3249"></path></svg>